<?xml version="1.0" encoding="UTF-8"?><svg id="Layer_1" xmlns="http://www.w3.org/2000/svg" width="70.27" height="38.92" viewBox="0 0 70.27 38.92"><defs><style>.cls-1{fill:none;}.cls-2{fill:#da3832;}.cls-3{fill:#df6145;stroke:#da3832;stroke-miterlimit:10;}</style></defs><rect class="cls-1" x="-2.52" y="-1.32" width="30.72" height="38.6"/><path class="cls-3" d="M2.13,36.94V1.56h20.88v4.7H7.7v9.84h12.96v4.7H7.7v11.38h15.84v4.75H2.13Z"/><path class="cls-3" d="M28.2,36.93V1.56h6.43l6.43,17.9c.42,1.15.82,2.33,1.2,3.53.38,1.2.77,2.39,1.15,3.58h.24c.42-1.18.81-2.38,1.18-3.58.37-1.2.74-2.38,1.13-3.53L52.29,1.56h6.48v35.38h-5.18v-17.47c0-1.06.04-2.22.12-3.5.08-1.28.18-2.58.29-3.89.11-1.31.23-2.5.36-3.55h-.24l-2.83,8.16-6.14,16.85h-3.46l-6.19-16.85-2.83-8.16h-.19c.13,1.06.25,2.24.36,3.55.11,1.31.21,2.61.29,3.89.08,1.28.12,2.45.12,3.5v17.47h-5.04Z"/><rect class="cls-2" x="63.33" y="10.79" width="6.93" height="6.93" transform="translate(133.6 28.51) rotate(180)"/><rect class="cls-2" x="63.33" y="20.87" width="6.93" height="6.93" transform="translate(133.6 48.67) rotate(180)"/></svg>