<?xml version="1.0" encoding="UTF-8"?><svg id="Layer_1" xmlns="http://www.w3.org/2000/svg" width="60.42" height="81.56" viewBox="0 0 60.42 81.56"><defs><style>.cls-1{fill:none;}.cls-2{fill:#da3832;}.cls-3{fill:#df6145;stroke:#da3832;stroke-miterlimit:10;}</style></defs><rect class="cls-1" x="-3.21" y="0" width="30.72" height="38.6"/><path class="cls-3" d="M1.45,38.26V2.88h20.88v4.7H7.01v9.84h12.96v4.7H7.01v11.38h15.84v4.75H1.45Z"/><path class="cls-3" d="M27.51,38.26V2.88h6.43l6.43,17.9c.42,1.15.82,2.33,1.2,3.53.38,1.2.77,2.39,1.15,3.58h.24c.42-1.18.81-2.38,1.18-3.58.37-1.2.74-2.38,1.13-3.53l6.34-17.9h6.48v35.38h-5.18v-17.47c0-1.06.04-2.22.12-3.5.08-1.28.18-2.58.29-3.89.11-1.31.23-2.5.36-3.55h-.24l-2.83,8.16-6.14,16.85h-3.46l-6.19-16.85-2.83-8.16h-.19c.13,1.06.25,2.24.36,3.55.11,1.31.21,2.61.29,3.89.08,1.28.12,2.45.12,3.5v17.47h-5.04Z"/><path class="cls-3" d="M1.45,79.73v-35.38h5.57v35.38H1.45Z"/><path class="cls-3" d="M11.67,80.08v-35.38h5.57v30.62h14.98v4.75H11.67Z"/><path class="cls-3" d="M36.76,80.08v-13.34l-10.61-22.03h5.95l4.08,9.41c.54,1.31,1.08,2.6,1.61,3.86.53,1.26,1.1,2.57,1.7,3.91h.19c.58-1.34,1.14-2.65,1.7-3.91.56-1.26,1.11-2.55,1.66-3.86l4.13-9.41h5.81l-10.66,22.03v13.34h-5.57Z"/><rect class="cls-2" x="51.15" y="63.66" width="6.93" height="6.93" transform="translate(109.24 134.25) rotate(180)"/><rect class="cls-2" x="51.15" y="73.14" width="6.93" height="6.93" transform="translate(109.24 153.22) rotate(180)"/></svg>