<?xml version="1.0" encoding="UTF-8"?><svg id="Layer_2" xmlns="http://www.w3.org/2000/svg" width="63.69" height="67.48" viewBox="0 0 63.69 67.48"><defs><style>.cls-1{fill:none;stroke:#2f308d;stroke-miterlimit:10;stroke-width:2px;}</style></defs><path class="cls-1" d="M50.19,12.23l-6.7,7.79s-11.37-9.03-22.33,0c0,0-7.92,9.47-4.87,18.95s9.95,13.47,17.45,12.84,13.19-6.74,14.82-12l-16.64-.21v-11.37h28.21s1.22,22.74-11.16,30.11c-12.38,7.37-20.9,6.55-28.82,4.12-7.92-2.43-14-11.7-16.03-17.38s-2.48-16.07,2.03-25.68c4.82-10.27,11.01-12.08,16.9-13.97s9.91-1.95,15.98-.76c6.28,1.23,11.16,7.58,11.16,7.58Z"/></svg>